<svg width="56" height="57" viewBox="0 0 56 57" fill="none" xmlns="http://www.w3.org/2000/svg">
<g clip-path="url(#clip0)">
<path d="M28 32.7978C25.424 32.7978 23.3333 30.7071 23.3333 28.1311C23.3333 25.5551 25.424 23.4645 28 23.4645C30.576 23.4645 32.6667 25.5551 32.6667 28.1311C32.6667 30.7071 30.576 32.7978 28 32.7978ZM37.002 25.7978C37.1957 26.5468 37.3333 27.3215 37.3333 28.1311C37.3333 28.9408 37.1957 29.7155 37.002 30.4645L42 30.4645L42 39.7978L56 28.1311L42 16.4645L42 25.7978L37.002 25.7978ZM18.998 30.4645C18.8043 29.7155 18.6667 28.9408 18.6667 28.1311C18.6667 27.3215 18.8043 26.5468 18.998 25.7978L14 25.7978L14 16.4645L-5.09966e-07 28.1311L14 39.7978L14 30.4645L18.998 30.4645Z" fill="white"/>
</g>
<defs>
<clipPath id="clip0">
<rect width="56" height="56" fill="white" transform="translate(56 0.131104) rotate(90)"/>
</clipPath>
</defs>
</svg>
