<svg width="300" height="81" viewBox="0 0 300 81" fill="none" xmlns="http://www.w3.org/2000/svg">
<path d="M-69.4717 65.7894H-83.6273V80.5053H-91V44.4947H-67.7022V50.5047H-83.6273V59.8041H-69.4717V65.7894Z" fill="#0F0F0F"/>
<path d="M-31.5169 63.3162C-31.5169 66.8612 -32.1395 69.9693 -33.3846 72.6404C-34.6298 75.3115 -36.4156 77.3725 -38.7422 78.8235C-41.0523 80.2745 -43.7065 81 -46.7047 81C-49.6702 81 -52.3162 80.2828 -54.6427 78.8483C-56.9692 77.4138 -58.7714 75.3692 -60.0493 72.7146C-61.3273 70.0434 -61.9744 66.9766 -61.9908 63.514V61.7333C-61.9908 58.1883 -61.36 55.072 -60.0985 52.3844C-58.8205 49.6803 -57.0265 47.611 -54.7164 46.1765C-52.3899 44.7255 -49.7357 44 -46.7538 44C-43.772 44 -41.126 44.7255 -38.8159 46.1765C-36.4894 47.611 -34.6953 49.6803 -33.4338 52.3844C-32.1559 55.072 -31.5169 58.18 -31.5169 61.7086V63.3162ZM-38.9879 61.6838C-38.9879 57.908 -39.6596 55.039 -41.0031 53.0769C-42.3466 51.1148 -44.2635 50.1337 -46.7538 50.1337C-49.2278 50.1337 -51.1365 51.1065 -52.48 53.0521C-53.8235 54.9813 -54.5034 57.8173 -54.5198 61.5602V63.3162C-54.5198 66.9931 -53.848 69.8456 -52.5046 71.8737C-51.1611 73.9017 -49.2278 74.9158 -46.7047 74.9158C-44.2307 74.9158 -42.3302 73.943 -41.0031 71.9973C-39.676 70.0352 -39.0043 67.1827 -38.9879 63.4398V61.6838Z" fill="#0F0F0F"/>
<path d="M1.17867 50.5047H-9.7821V80.5053H-17.1548V50.5047H-27.9682V44.4947H1.17867V50.5047Z" fill="#0F0F0F"/>
<path d="M36.6267 63.3162C36.6267 66.8612 36.0041 69.9693 34.759 72.6404C33.5138 75.3115 31.728 77.3725 29.4015 78.8235C27.0913 80.2745 24.4372 81 21.4389 81C18.4734 81 15.8275 80.2828 13.501 78.8483C11.1745 77.4138 9.37223 75.3692 8.09429 72.7146C6.81635 70.0434 6.1692 66.9766 6.15281 63.514V61.7333C6.15281 58.1883 6.78358 55.072 8.04514 52.3844C9.32308 49.6803 11.1171 47.611 13.4272 46.1765C15.7537 44.7255 18.4079 44 21.3898 44C24.3716 44 27.0176 44.7255 29.3277 46.1765C31.6542 47.611 33.4483 49.6803 34.7098 52.3844C35.9878 55.072 36.6267 58.18 36.6267 61.7086V63.3162ZM29.1557 61.6838C29.1557 57.908 28.484 55.039 27.1405 53.0769C25.797 51.1148 23.8801 50.1337 21.3898 50.1337C18.9158 50.1337 17.0071 51.1065 15.6636 53.0521C14.3201 54.9813 13.6402 57.8173 13.6238 61.5602V63.3162C13.6238 66.9931 14.2956 69.8456 15.639 71.8737C16.9825 73.9017 18.9158 74.9158 21.4389 74.9158C23.9129 74.9158 25.8134 73.943 27.1405 71.9973C28.4676 70.0352 29.1393 67.1827 29.1557 63.4398V61.6838Z" fill="#0F0F0F"/>
<path d="M54.1345 44.4947L63.3258 70.6123L72.468 44.4947H82.1508V80.5053H74.7535V70.6618L75.4908 53.6705L65.8325 80.5053H60.7699L51.1362 53.6952L51.8735 70.6618V80.5053H44.5008V44.4947H54.1345Z" fill="#0F0F0F"/>
<path d="M118.189 44.4947V68.2132C118.189 72.154 116.96 75.2703 114.502 77.5622C112.061 79.8541 108.719 81 104.475 81C100.298 81 96.9798 79.887 94.5222 77.6611C92.0647 75.4352 90.8113 72.3766 90.7622 68.4853V44.4947H98.1349V68.2627C98.1349 70.6205 98.6919 72.3436 99.806 73.4318C100.937 74.5036 102.493 75.0394 104.475 75.0394C108.621 75.0394 110.726 72.8465 110.791 68.4606V44.4947H118.189Z" fill="#0F0F0F"/>
<path d="M153.833 44.4947V68.2132C153.833 72.154 152.605 75.2703 150.147 77.5622C147.706 79.8541 144.363 81 140.12 81C135.942 81 132.624 79.887 130.167 77.6611C127.709 75.4352 126.456 72.3766 126.407 68.4853V44.4947H133.78V68.2627C133.78 70.6205 134.337 72.3436 135.451 73.4318C136.581 74.5036 138.138 75.0394 140.12 75.0394C144.265 75.0394 146.37 72.8465 146.436 68.4606V44.4947H153.833Z" fill="#0F0F0F"/>
<path d="M180.95 71.0575C180.95 69.656 180.459 68.5842 179.476 67.8422C178.493 67.0838 176.723 66.2923 174.167 65.4679C171.611 64.627 169.588 63.8026 168.097 62.9947C164.034 60.7852 162.002 57.809 162.002 54.0662C162.002 52.1205 162.543 50.3893 163.624 48.8723C164.722 47.3389 166.287 46.1435 168.318 45.2861C170.366 44.4287 172.66 44 175.199 44C177.755 44 180.033 44.4699 182.032 45.4098C184.03 46.3331 185.579 47.6439 186.676 49.3422C187.79 51.0406 188.348 52.9697 188.348 55.1297H180.975C180.975 53.4808 180.459 52.203 179.427 51.2961C178.394 50.3728 176.944 49.9111 175.077 49.9111C173.274 49.9111 171.874 50.2986 170.874 51.0735C169.875 51.832 169.375 52.8378 169.375 54.0909C169.375 55.2616 169.957 56.2426 171.12 57.0341C172.3 57.8255 174.028 58.5675 176.305 59.26C180.5 60.5296 183.555 62.1043 185.472 63.984C187.389 65.8636 188.348 68.205 188.348 71.008C188.348 74.1243 187.176 76.5729 184.833 78.3536C182.49 80.1179 179.336 81 175.372 81C172.619 81 170.112 80.4971 167.851 79.4913C165.59 78.469 163.862 77.0758 162.666 75.3115C161.486 73.5472 160.896 71.5027 160.896 69.1778H168.294C168.294 73.1515 170.653 75.1384 175.372 75.1384C177.125 75.1384 178.493 74.7839 179.476 74.0749C180.459 73.3494 180.95 72.3436 180.95 71.0575Z" fill="#0F0F0F"/>
<path d="M217.406 64.8991H203.25V74.5448H219.863V80.5053H195.878V44.4947H219.814V50.5047H203.25V59.0869H217.406V64.8991Z" fill="#0F0F0F"/>
<path d="M253.788 44.4947V68.2132C253.788 72.154 252.559 75.2703 250.101 77.5622C247.66 79.8541 244.318 81 240.074 81C235.897 81 232.579 79.887 230.121 77.6611C227.664 75.4352 226.41 72.3766 226.361 68.4853V44.4947H233.734V68.2627C233.734 70.6205 234.291 72.3436 235.405 73.4318C236.536 74.5036 238.092 75.0394 240.074 75.0394C244.22 75.0394 246.325 72.8465 246.39 68.4606V44.4947H253.788Z" fill="#0F0F0F"/>
<path d="M271.984 44.4947L281.175 70.6123L290.317 44.4947H300V80.5053H292.603V70.6618L293.34 53.6705L283.682 80.5053H278.619L268.985 53.6952L269.723 70.6618V80.5053H262.35V44.4947H271.984Z" fill="#0F0F0F"/>
<path d="M-8.40918 23H-3.82637V14.8513C-3.82637 12.135 -4.21916 9.06596 -4.41559 6.52608H-4.28463L-2.18963 11.5353L3.37521 23H8.31809V1.52588e-05H3.73529V8.11349C3.73529 10.8298 4.12808 14.0752 4.3245 16.5092H4.19356L2.09856 11.4294L-3.46629 1.52588e-05H-8.40918V23Z" fill="#58B8C4"/>
<path d="M13.5454 23H18.1282V14.8513C18.1282 12.135 17.7354 9.06596 17.539 6.52608H17.67L19.765 11.5353L25.3298 23H30.2727V1.52588e-05H25.6899V8.11349C25.6899 10.8298 26.0827 14.0752 26.2791 16.5092H26.1481L24.0531 11.4294L18.4883 1.52588e-05H13.5454V23Z" fill="#58B8C4"/>
<path d="M41.0008 11.3589C41.5798 9.06592 42.1267 6.38497 42.6413 3.9509H42.77C43.3169 6.34966 43.8959 9.06592 44.4749 11.3589L44.9575 13.4756H40.4861L41.0008 11.3589ZM33.4092 23H38.2344L39.5211 17.5323H45.9225L47.2092 23H52.2274L45.6651 1.52588e-05H39.9714L33.4092 23Z" fill="#58B8C4"/>
<path d="M61.6362 23H75.2271V18.6257H66.5692V1.52588e-05H61.6362V23Z" fill="#58B8C4"/>
<path d="M78.3635 23H83.5908V1.52588e-05H78.3635V23Z" fill="#58B8C4"/>
<path d="M88.8181 23H93.4009V14.8513C93.4009 12.135 93.0081 9.06596 92.8117 6.52608H92.9427L95.0377 11.5353L100.603 23H105.545V1.52588e-05H100.963V8.11349C100.963 10.8298 101.355 14.0752 101.552 16.5092H101.421L99.3259 11.4294L93.761 1.52588e-05H88.8181V23Z" fill="#58B8C4"/>
<path d="M110.773 23H115.356V14.8512C115.356 12.135 114.963 9.06594 114.766 6.52606H114.897L116.992 11.5353L122.557 23H127.5V0L122.917 0V8.11347C122.917 10.8298 123.31 14.0751 123.506 16.5092H123.375L121.28 11.4294L115.716 0L110.773 0V23Z" fill="#58B8C4"/>
<path d="M138.228 11.3589C138.807 9.06591 139.354 6.38495 139.868 3.95088H139.997C140.544 6.34964 141.123 9.06591 141.702 11.3589L142.185 13.4755H137.713L138.228 11.3589ZM130.636 23H135.461L136.748 17.5323H143.15L144.436 23H149.454L142.892 0L137.198 0L130.636 23Z" fill="#58B8C4"/>
<path d="M151.545 23H156.085V14.569C156.085 12.3113 155.672 8.96016 155.431 6.73777H155.569L157.357 12.2055L160.556 20.9894H163.341L166.539 12.2055L168.362 6.73777H168.5C168.259 8.96016 167.846 12.3113 167.846 14.569V23H172.454V0L166.952 0L163.41 10.2301C162.963 11.5706 162.585 13.0521 162.138 14.4631H162C161.553 13.0521 161.14 11.5706 160.693 10.2301L157.082 0L151.545 0V23Z" fill="#58B8C4"/>
<path d="M186.11 23C191.535 23 194.409 19.7094 194.409 12.1235V0L189.823 0V12.6431C189.823 17.0768 188.467 18.601 186.11 18.601C183.753 18.601 182.461 17.0768 182.461 12.6431V0L177.682 0V12.1235C177.682 19.7094 180.652 23 186.11 23Z" fill="#58B8C4"/>
<path d="M208.064 23C213.49 23 216.364 19.7094 216.364 12.1235V0L211.778 0V12.6431C211.778 17.0768 210.422 18.601 208.064 18.601C205.707 18.601 204.415 17.0768 204.415 12.6431V0L199.636 0V12.1235C199.636 19.7094 202.607 23 208.064 23Z" fill="#58B8C4"/>
<path d="M227.778 23C233.136 23 236.227 19.8018 236.227 16.1272C236.227 12.9971 234.51 11.1938 231.796 10.1051L228.911 8.94816C226.988 8.16557 225.511 7.68924 225.511 6.32826C225.511 5.06941 226.61 4.32094 228.362 4.32094C230.148 4.32094 231.522 4.96748 232.999 6.09023L235.575 2.926C233.651 1.02065 230.938 0 228.362 0C223.69 0 220.393 2.92593 220.393 6.60052C220.393 9.83278 222.591 11.7381 224.893 12.6567L227.812 13.8817C229.77 14.6983 231.041 15.1406 231.041 16.5356C231.041 17.8625 230.01 18.6791 227.915 18.6791C226.06 18.6791 224 17.7264 222.385 16.3654L219.5 19.8017C221.767 21.9113 224.858 23 227.778 23Z" fill="#58B8C4"/>
<path d="M239.364 23H254V18.6257H244.511V13.3344H252.284V8.99539H244.511V4.37429H253.65V0L239.364 0V23Z" fill="#58B8C4"/>
<path d="M266.61 23C272.035 23 274.909 19.7094 274.909 12.1235V0L270.324 0V12.6431C270.324 17.0768 268.967 18.601 266.61 18.601C264.253 18.601 262.961 17.0768 262.961 12.6431V0L258.182 0V12.1235C258.182 19.7094 261.153 23 266.61 23Z" fill="#58B8C4"/>
<path d="M280.136 23H284.449V14.569C284.449 12.3113 284.057 8.96016 283.828 6.73777H283.959L285.658 12.2055L288.696 20.9894H291.342L294.381 12.2055L296.112 6.73777H296.243C296.014 8.96016 295.622 12.3113 295.622 14.569V23H300V0L294.773 0L291.408 10.2301C290.983 11.5706 290.623 13.0521 290.199 14.4631H290.068C289.643 13.0521 289.251 11.5706 288.827 10.2301L285.396 0L280.136 0L280.136 23Z" fill="#58B8C4"/>
</svg>
