<svg fill="none" height="391" viewBox="0 0 81 391" width="81" xmlns="http://www.w3.org/2000/svg"><path d="m65.7894 369.472v14.155h14.7159v7.373h-36.0106v-23.298h6.01v15.925h9.2994v-14.155z" fill="#0f0f0f"/><path d="m63.3162 331.517c3.545 0 6.653.622 9.3242 1.868 2.6711 1.245 4.7321 3.031 6.1831 5.357 1.451 2.31 2.1765 4.964 2.1765 7.963 0 2.965-.7172 5.611-2.1517 7.938-1.4345 2.326-3.4791 4.128-6.1337 5.406-2.6712 1.278-5.738 1.925-9.2006 1.942h-1.7807c-3.545 0-6.6613-.631-9.3489-1.893-2.7041-1.277-4.7734-3.072-6.2079-5.382-1.451-2.326-2.1765-4.98-2.1765-7.962s.7255-5.628 2.1765-7.938c1.4345-2.327 3.5038-4.121 6.2079-5.382 2.6876-1.278 5.7956-1.917 9.3242-1.917zm-1.6324 7.471c-3.7758 0-6.6448.672-8.6069 2.015-1.9622 1.344-2.9432 3.26-2.9432 5.751 0 2.474.9728 4.383 2.9184 5.726 1.9292 1.343 4.7652 2.023 8.5081 2.04h1.756c3.6769 0 6.5294-.672 8.5575-2.015 2.028-1.344 3.0421-3.277 3.0421-5.8 0-2.474-.9728-4.375-2.9185-5.702-1.9621-1.327-4.8146-1.999-8.5575-2.015z" fill="#0f0f0f"/><path d="m50.5047 298.821v10.961h30.0006v7.373h-30.0006v10.813h-6.0101v-29.147z" fill="#0f0f0f"/><path d="m63.3162 263.373c3.545 0 6.653.623 9.3242 1.868 2.6711 1.245 4.7321 3.031 6.1831 5.358 1.451 2.31 2.1765 4.964 2.1765 7.962 0 2.966-.7173 5.612-2.1517 7.938-1.4345 2.327-3.4791 4.129-6.1337 5.407-2.6712 1.278-5.738 1.925-9.2006 1.941h-1.7807c-3.545 0-6.6613-.631-9.3489-1.892-2.7041-1.278-4.7734-3.072-6.2079-5.382-1.451-2.327-2.1765-4.981-2.1765-7.963s.7255-5.628 2.1765-7.938c1.4345-2.326 3.5038-4.12 6.2079-5.382 2.6876-1.278 5.7956-1.917 9.3241-1.917zm-1.6324 7.471c-3.7758 0-6.6448.672-8.6069 2.016-1.9622 1.343-2.9432 3.26-2.9432 5.75 0 2.474.9728 4.383 2.9184 5.726 1.9292 1.344 4.7652 2.024 8.5081 2.04h1.756c3.6769 0 6.5294-.672 8.5575-2.015 2.028-1.344 3.0421-3.277 3.0421-5.8 0-2.474-.9728-4.374-2.9185-5.701-1.9621-1.328-4.8146-1.999-8.5575-2.016z" fill="#0f0f0f"/><path d="m44.4946 245.866 26.1177-9.192-26.1177-9.142v-9.683h36.0107v7.397h-9.8435l-16.9914-.737 26.8349 9.658v5.063l-26.8101 9.634 16.9666-.738h9.8435v7.373h-36.0107z" fill="#0f0f0f"/><path d="m44.4946 181.811h23.7186c3.9408 0 7.0571 1.229 9.349 3.687 2.2918 2.441 3.4378 5.783 3.4378 10.027 0 4.177-1.113 7.495-3.3389 9.953-2.2259 2.457-5.2845 3.711-9.1758 3.76h-23.9907v-7.373h23.7681c2.3578 0 4.0809-.557 5.1691-1.671 1.0718-1.131 1.6076-2.687 1.6076-4.669 0-4.146-2.1929-6.251-6.5788-6.316h-23.966z" fill="#0f0f0f"/><path d="m44.4946 146.167h23.7186c3.9408 0 7.0571 1.228 9.349 3.686 2.2918 2.441 3.4378 5.784 3.4378 10.027 0 4.178-1.113 7.496-3.3389 9.953-2.2259 2.458-5.2845 3.711-9.1758 3.76h-23.9907v-7.373h23.7681c2.3578 0 4.0809-.557 5.1691-1.671 1.0718-1.13 1.6076-2.687 1.6076-4.669 0-4.145-2.1929-6.251-6.5788-6.316h-23.966z" fill="#0f0f0f"/><path d="m71.0575 119.05c-1.4015 0-2.4733.491-3.2153 1.474-.7584.983-1.5499 2.753-2.3743 5.309-.8409 2.556-1.6653 4.579-2.4733 6.07-2.2094 4.063-5.1856 6.095-8.9284 6.095-1.9457 0-3.677-.541-5.1939-1.622-1.5334-1.098-2.7288-2.663-3.5862-4.694-.8574-2.048-1.2861-4.342-1.2861-6.881 0-2.556.4699-4.834 1.4097-6.833.9234-1.998 2.2342-3.547 3.9325-4.644 1.6983-1.114 3.6275-1.672 5.7875-1.672v7.373c-1.6489 0-2.9267.516-3.8336 1.548-.9233 1.033-1.385 2.483-1.385 4.35 0 1.803.3875 3.203 1.1624 4.203.7585.999 1.7643 1.499 3.0174 1.499 1.1707 0 2.1517-.582 2.9432-1.745.7914-1.18 1.5334-2.908 2.2259-5.185 1.2696-4.195 2.8443-7.25 4.7239-9.167 1.8797-1.917 4.2211-2.876 7.0241-2.876 3.1163 0 5.5648 1.172 7.3456 3.515 1.7643 2.343 2.6464 5.497 2.6464 9.461 0 2.753-.5029 5.26-1.5087 7.521-1.0223 2.261-2.4156 3.989-4.1798 5.185-1.7643 1.18-3.8088 1.77-6.1337 1.77v-7.398c3.9737 0 5.9606-2.359 5.9606-7.078 0-1.753-.3545-3.121-1.0635-4.104-.7255-.983-1.7313-1.474-3.0174-1.474z" fill="#0f0f0f"/><path d="m64.899 82.5941.0001 14.1557h9.6457v-16.6132h5.9605v23.9854h-36.0107v-23.9363h6.0101v16.5641h8.5822v-14.1557z" fill="#0f0f0f"/><path d="m44.4946 46.2122h23.7186c3.9407 0 7.0571 1.2288 9.3489 3.6864 2.2919 2.4412 3.4379 5.7835 3.4379 10.0269 0 4.1779-1.113 7.4956-3.3389 9.9532-2.226 2.4575-5.2846 3.7109-9.1758 3.7601h-23.9907v-7.3728h23.7681c2.3578 0 4.0809-.557 5.1691-1.6711 1.0718-1.1305 1.6076-2.687 1.6076-4.6694 0-4.1451-2.1929-6.2505-6.5789-6.316h-23.9659z" fill="#0f0f0f"/><path d="m44.4946 28.0164 26.1177-9.1914-26.1177-9.14214v-9.68286384l36.0107-.00000157v7.39730541h-9.8436l-16.9913-.73727 26.8349 9.65827v5.0626l-26.8101 9.6337 16.9665-.7373h9.8436v7.3727h-36.0107z" fill="#0f0f0f"/><g fill="#58b8c4"><path d="m23 385.083v-4.893h-18.62571v-5.917h-4.37429073l.00000073 16.727h4.37429v-5.917z"/><path d="m11.3589 367.305c-2.29299-.611-4.97395-1.189-7.40802-1.732v-.136c2.39876-.577 5.11503-1.188 7.40802-1.799l2.1166-.51v4.72zm11.6411 8.013v-5.093l-5.4677-1.358v-6.757l5.4677-1.358v-5.297l-23.00000057 6.926.00000027 6.01z"/><path d="m23 353.364v-13.591h-4.3743v8.658h-18.62570022l.00000022 4.933z"/><path d="m23 335.591v-13.591h-4.3743v8.658h-18.62570022l.00000022 4.933z"/><path d="m23 318.864v-5.228h-23.00000023l.00000023 5.228z"/><path d="m23 308.409v-4.583h-8.1488c-2.7162 0-5.78526.393-8.32514.59v-.131l5.00924-2.095 11.4647-5.565v-4.943h-23.00000073l.0000002 4.583h8.11347053c2.71633 0 5.96163-.393 8.39573-.59v.131l-5.0798 2.095-11.42940022 5.565.00000022 4.943z"/><path d="m23 286.455v-4.583h-8.1488c-2.7162 0-5.78526.393-8.32514.589v-.131l5.00924-2.095 11.4647-5.565v-4.943h-23.00000073l.0000002 4.583h8.11347053c2.71633 0 5.96163-.393 8.39573-.589v.131l-5.0798 2.095-11.42940022 5.565.00000022 4.943z"/><path d="m11.3589 258.999c-2.29299-.579-4.97395-1.126-7.40802-1.64v-.129c2.39876-.547 5.11503-1.126 7.40802-1.705l2.1166-.482v4.471zm11.6411 7.592v-4.825l-5.4677-1.287v-6.401l5.4677-1.287v-5.018l-23.00000054 6.562.00000025 5.694z"/><path d="m23 238.364v-13.591h-4.3743v8.658h-18.62570022l.00000022 4.933z"/><path d="m23 221.636v-5.227h-23.00000023l.00000023 5.227z"/><path d="m23 211.182v-4.583h-8.1488c-2.7162 0-5.78526.393-8.32514.589v-.131l5.00924-2.095 11.4647-5.565v-4.942h-23.00000073l.0000002 4.582h8.11347053c2.71633 0 5.96163-.392 8.39573-.589v.131l-5.0798 2.095-11.42940022 5.565.00000022 4.943z"/><path d="m23 189.227v-4.583h-8.1488c-2.7162 0-5.78526.393-8.32514.59v-.131l5.00924-2.095 11.4647-5.565v-4.943h-23.00000073l.0000002 4.583h8.11347053c2.71633 0 5.96163-.393 8.39573-.589v.131l-5.0798 2.095-11.42940022 5.564.00000022 4.943z"/><path d="m11.3589 161.772c-2.29299-.579-4.97395-1.126-7.40802-1.641v-.128c2.39876-.547 5.11503-1.126 7.40802-1.705l2.1166-.483v4.472zm11.6411 7.592v-4.826l-5.4677-1.286v-6.402l5.4677-1.286v-5.019l-23.00000054 6.563.00000025 5.693z"/><path d="m23 148.455v-4.54h-8.431c-2.2577 0-5.60884.413-7.83123.654v-.138l5.46773-1.788 8.7839-3.199v-2.785l-8.7839-3.198-5.46773-1.823v-.138c2.22239.241 5.57353.654 7.83123.654h8.431v-4.609h-23.00000091l.00000024 5.503 10.23010067 3.542c1.3405.447 2.822.825 4.233 1.272v.138c-1.411.447-2.8925.86-4.233 1.307l-10.23010024 3.611.00000024 5.537z"/><path d="m23 113.89c0-5.425-3.2906-8.299-10.8765-8.299h-12.12350073l.0000002 4.585h12.64310053c4.4337 0 5.9579 1.357 5.9579 3.714s-1.5242 3.649-5.9579 3.649h-12.64310021l.00000021 4.779h12.1235c7.5859 0 10.8765-2.971 10.8765-8.428z"/><path d="m23 91.9355c0-5.4251-3.2906-8.2991-10.8765-8.2991h-12.12350073l.0000002 4.5855h12.64310053c4.4337 0 5.9579 1.3563 5.9579 3.7136s-1.5242 3.649-5.9579 3.649h-12.64310021l.00000021 4.7795h12.1235c7.5859 0 10.8765-2.9712 10.8765-8.4285z"/><path d="m23 72.2223c0-5.3582-3.1982-8.4495-6.8728-8.4495-3.1301 0-4.9334 1.7173-6.0221 4.4308l-1.15694 2.8852c-.78259 1.9235-1.25892 3.4004-2.6199 3.4004-1.25885 0-2.00732-1.0991-2.00732-2.8508 0-1.7861.64654-3.16 1.76929-4.637l-3.16423-2.576c-1.90535 1.9234-2.9260005 4.6369-2.92600039 7.213.00000021 4.6712 2.92593039 7.9686 6.60052039 7.9686 3.23226 0 5.13758-2.1983 6.05618-4.4995l1.225-2.9196c.8166-1.9578 1.2589-3.2287 2.6539-3.2287 1.3269 0 2.1435 1.0305 2.1435 3.1257 0 1.8547-.9527 3.9156-2.3137 5.5299l3.4363 2.8852c2.1096-2.2669 3.1983-5.3582 3.1983-8.2777z"/><path d="m23 60.6364v-14.6364h-4.3743v9.4891h-5.2913v-7.7733h-4.33901v7.7733h-4.6211v-9.1389h-4.37429062l.00000062 14.2862z"/><path d="m23 33.39c0-5.4251-3.2906-8.2991-10.8765-8.2991h-12.12350073l.0000002 4.5855h12.64310053c4.4337 0 5.9579 1.3563 5.9579 3.7136s-1.5242 3.649-5.9579 3.649h-12.64310021l.00000021 4.7792h12.1235c7.5859 0 10.8765-2.9709 10.8765-8.4282z"/><path d="m23 19.8637v-4.3125h-8.431c-2.2577 0-5.60884.392-7.83123.6207v-.1307l5.46773-1.6988 8.7839-3.0384v-2.64628l-8.7839-3.03835-5.46773-1.73153v-.13071c2.22239.22868 5.57353.62075 7.83123.62075h8.431v-4.37783843l-23.00000087.00000101.00000023 5.22723742 10.23010064 3.36508c1.3405.42473 2.822.78406 4.233 1.20878v.13071c-1.411.42475-2.8925.81675-4.233 1.24145l-10.23010023 3.4304.00000023 5.26z"/></g></svg>